                     =!DK GROUP HD BLURAY RELEAESEES!=

===================================================================================



   The Sorcerers Apprentice(2010)1920x1080p BDRip In[Hindi-Eng]6CH.AC3 By !!!dip


===================================================================================

Storyline:

Balthazar Blake (Nicolas Cage) is a master sorcerer in modern-day Manhattan trying to defend the city from his arch-nemesis, Maxim Horvath (Alfred Molina). Balthazar can't do it alone, so he recruits Dave Stutler (Jay Baruchel), a seemingly average guy who demonstrates hidden potential, as his reluctant protégé. The sorcerer gives his unwilling accomplice a crash course in the art and science of magic, and together, these unlikely partners work to stop the forces of darkness. It'll take all the courage Dave can muster to survive his training, save the city and get the girl as he becomes The Sorcerer's Apprentice.
Cast:


Nicolas Cage ... Balthazar Blake
Jay Baruchel ... Dave
Alfred Molina ... Maxim Horvath
Teresa Palmer ... Becky Barnes
Toby Kebbell ... Drake Stone
Omar Benson Miller ... Bennet
Monica Bellucci ... Veronica
Alice Krige ... Morgana le Fay
Jake Cherry ... Young Dave
James A. Stephens ... Merlin
Gregory Woo ... Sun-Lok
Wai Ching Ho ... Chinese Woman
Jason R. Moore ... Subway Mugger
Robert Capron ... Young Dave's Pal (as Robert B. Capron)
Peyton List ... Young Becky (as Peyton Roi List)


Genre............................: Action | Adventure | Comedy | Drama | Fantasy
Directer.........................: Jon Turteltaub
Writer...........................: Lawrence Konner, Mark Rosenthal
IMDB.............................: http://www.imdb.com/title/tt0963966/
year.............................: 14 July 2010 (USA)
User Rating......................: 6.7/10 (16,841 votes)
Languages........................: (English,Hindi)6ch
Subtittle........................: English
Ripper...........................: !!!dip
Encoder: Deep Shikha



Video Specifications:

Video
ID : 1
Format : AVC
Format/Info : Advanced Video Codec
Format profile : High@L4.1
Format settings, CABAC : Yes
Format settings, ReFrames : 3 frames
Format settings, GOP : M=4, N=28
Muxing mode : Header stripping
Codec ID : V_MPEG4/ISO/AVC
Duration : 1h 49mn
Bit rate mode : Variable
Bit rate : 4 673 Kbps
Maximum bit rate : 18.0 Mbps
Width : 1 920 pixels
Height : 1 080 pixels
Display aspect ratio : 16:9
Frame rate : 23.976 fps
Color space : YUV
Chroma subsampling : 4:2:0
Bit depth : 8 bits
Scan type : Progressive
Bits/(Pixel*Frame) : 0.094
Stream size : 3.47 GiB (76%)
Title : !!!dip
Team : DK Group HD Bluray Releases




Audio Specifications:

Audio #1
ID : 2
Format : AC-3
Format/Info : Audio Coding 3
Mode extension : CM (complete main)
Muxing mode : Header stripping
Codec ID : A_AC3
Duration : 1h 49mn
Bit rate mode : Constant
Bit rate : 640 Kbps
Channel(s) : 6 channels
Channel positions : Front: L C R, Side: L R, LFE
Sampling rate : 48.0 KHz
Bit depth : 16 bits
Compression mode : Lossy
Stream size : 499 MiB (11%)
Title : !!!dip
Language : English

Audio #2
ID : 3
Format : AC-3
Format/Info : Audio Coding 3
Mode extension : CM (complete main)
Muxing mode : Header stripping
Codec ID : A_AC3
Duration : 1h 49mn
Bit rate mode : Constant
Bit rate : 640 Kbps
Channel(s) : 6 channels
Channel positions : Front: L C R, Side: L R, LFE
Sampling rate : 48.0 KHz
Bit depth : 16 bits
Compression mode : Lossy
Stream size : 499 MiB (11%)
Title : !!!dip
Language : Hindi

Text
ID : 4
Format : UTF-8
Codec ID : S_TEXT/UTF8
Codec ID/Info : UTF-8 Plain Text
Title : !!!dip
Language : English


SAMPLE IMAGE:

 
http://www.shotpix.com/images/51388278546584227638.jpg
 
http://www.shotpix.com/images/67598654310332582450.jpg
 
http://www.shotpix.com/images/88528359857950871842.jpg
 
http://www.shotpix.com/images/07552621324316047530.jpg
 
http://www.shotpix.com/images/42883978428515286485.jpg


VIDEO SAMPLE IS AVAILABLE		